<?xml version="1.0" standalone="no"?>
<!DOCTYPE svg PUBLIC "-//W3C//DTD SVG 20010904//EN"
 "http://www.w3.org/TR/2001/REC-SVG-20010904/DTD/svg10.dtd">
<svg version="1.0" xmlns="http://www.w3.org/2000/svg"
 width="512.000000pt" height="512.000000pt" viewBox="0 0 512.000000 512.000000"
 preserveAspectRatio="xMidYMid meet">

<g transform="translate(0.000000,512.000000) scale(0.100000,-0.100000)"
fill="#ffffff" stroke="none">
<path d="M1656 4739 c-246 -36 -500 -139 -711 -288 -102 -72 -274 -244 -346
-346 -124 -176 -218 -385 -265 -590 -36 -161 -45 -407 -19 -569 20 -127 60
-268 109 -385 32 -77 34 -85 22 -119 -28 -79 -57 -225 -65 -332 -50 -617 330
-1193 916 -1388 149 -50 250 -66 425 -66 101 -1 154 -5 150 -11 -3 -5 -25 -36
-49 -67 -66 -86 -55 -158 24 -158 42 0 55 13 177 178 74 100 106 151 106 171
0 34 -27 60 -194 185 -138 103 -168 114 -206 76 -12 -12 -20 -33 -20 -53 0
-37 15 -54 115 -128 l60 -44 -144 -3 c-219 -4 -369 30 -561 129 -279 143 -485
377 -588 669 -50 143 -66 239 -67 400 0 125 15 263 32 293 3 4 33 -29 67 -75
85 -111 243 -261 357 -337 238 -160 479 -245 766 -272 141 -14 175 -6 192 43
8 23 7 36 -4 59 -18 33 -26 36 -160 44 -336 20 -641 156 -889 395 -124 119
-211 235 -281 371 -310 605 -162 1326 361 1758 382 316 893 409 1367 251 123
-42 285 -127 387 -204 166 -125 343 -333 430 -505 80 -161 134 -364 145 -546
8 -134 11 -142 44 -160 23 -11 36 -12 59 -4 49 17 57 51 43 192 -14 151 -33
242 -78 376 -183 549 -657 953 -1231 1052 -122 20 -362 25 -476 8z"/>
<path d="M3610 4723 c-8 -4 -81 -62 -162 -130 -151 -127 -171 -152 -151 -196
19 -40 245 -302 269 -311 55 -22 115 34 95 87 -5 14 -38 57 -71 97 -34 39 -60
73 -58 75 8 8 177 -26 255 -51 369 -119 671 -417 793 -782 42 -126 61 -248 61
-397 0 -200 -42 -388 -121 -545 l-31 -61 -82 76 c-199 186 -466 317 -729 360
-120 19 -327 19 -448 0 -108 -18 -298 -78 -391 -125 -79 -40 -209 -124 -268
-174 -35 -29 -50 -36 -70 -31 -36 9 -214 94 -297 143 -79 46 -264 180 -264
191 0 4 23 34 51 66 126 149 244 359 301 538 l31 97 133 0 c121 0 136 2 154
20 27 27 26 81 -1 106 -20 18 -43 19 -360 22 l-339 3 0 112 c0 100 -2 116 -20
135 -30 32 -82 30 -109 -4 -18 -23 -21 -41 -21 -135 l0 -108 -341 -3 -341 -3
-19 -24 c-25 -30 -24 -76 1 -101 20 -20 33 -20 560 -20 619 0 559 12 516 -102
-54 -145 -145 -300 -249 -426 l-61 -73 -52 58 c-29 32 -79 94 -111 137 -104
142 -125 156 -177 115 -38 -30 -35 -71 11 -139 43 -65 97 -133 170 -213 l53
-58 -33 -28 c-111 -95 -291 -204 -457 -276 -87 -37 -111 -52 -120 -74 -20 -49
15 -101 68 -101 24 0 204 78 291 127 99 55 197 121 282 189 l77 62 61 -49
c109 -89 247 -176 384 -245 l136 -67 -39 -46 c-48 -58 -118 -168 -159 -250
-48 -93 -108 -282 -126 -391 -19 -121 -19 -328 0 -448 95 -583 557 -1046 1144
-1146 122 -21 330 -21 452 0 216 37 433 131 611 264 170 127 301 284 398 476
219 429 198 941 -54 1357 l-47 77 55 113 c98 202 135 348 142 572 9 246 -28
428 -130 641 -141 293 -346 504 -633 648 -116 58 -218 92 -355 120 l-106 22
60 49 c69 58 88 81 88 111 0 44 -59 83 -100 67z m80 -1929 c479 -91 875 -477
979 -955 34 -155 32 -387 -4 -544 -94 -406 -399 -747 -792 -889 -207 -74 -471
-91 -682 -45 -608 132 -1035 717 -971 1332 30 296 150 548 359 758 252 251
576 378 926 363 61 -3 144 -12 185 -20z"/>
<path d="M3432 2333 c-7 -3 -19 -18 -28 -35 -32 -62 -524 -1283 -524 -1301 0
-26 45 -67 73 -67 44 0 66 33 138 210 39 96 73 181 76 188 4 9 74 12 302 12
l297 0 75 -187 c81 -200 103 -232 152 -219 37 9 57 33 57 67 0 17 -112 307
-250 645 -137 339 -250 619 -250 624 0 5 -12 22 -26 39 -25 30 -57 38 -92 24z
m158 -562 c61 -150 109 -275 107 -277 -2 -3 -107 -3 -233 -2 l-230 3 115 282
c63 156 118 280 122 275 4 -4 58 -130 119 -281z"/>
</g>
</svg>
