<svg id="Layer_1" data-name="Layer 1" xmlns="http://www.w3.org/2000/svg" viewBox="0 0 560.01 133.83"><defs><style>.cls-1{fill:#061cea;}.cls-2{fill:none;stroke:#9dc3e6;stroke-miterlimit:10;stroke-width:1.25px;}</style></defs><title>logovisi</title><path class="cls-1" d="M246.08,56.41a13.28,13.28,0,0,0-3,.53,11.28,11.28,0,0,0-2.86,1.2,7.81,7.81,0,0,0-2.55,2.53,29.33,29.33,0,0,0-1.9,3.66q-3.15,7.45-9.43,23.24t-12.94,32.9h-3.9q-6.75-18.15-13-35T188,62.74a8.68,8.68,0,0,0-1.5-2.56A11.12,11.12,0,0,0,184,58.09a9.68,9.68,0,0,0-2.81-1.19,15.45,15.45,0,0,0-2.86-.49V53.08h27.54v3.33a39,39,0,0,0-5.94.7c-1.61.34-2.41,1-2.41,1.83a4.67,4.67,0,0,0,.19,1.22c.12.47.23.84.33,1.12q1.72,4.6,5.62,15t11.07,29.6q3.57-8.69,8.21-20.51t6.24-16.24a38.86,38.86,0,0,0,1.8-5.91,18.41,18.41,0,0,0,.26-2.68,2.17,2.17,0,0,0-1-1.8,8.6,8.6,0,0,0-2.56-1.25,22.59,22.59,0,0,0-3.14-.7c-1.06-.16-2.14-.28-3.24-.37V53.08h24.76Z" transform="translate(0 -38.05)"/><path class="cls-1" d="M282.78,119.62h-30v-3.33l3.66-.28a13.29,13.29,0,0,0,3.37-.56,4.69,4.69,0,0,0,2.25-1.66,5.26,5.26,0,0,0,.71-2.94V62.64a6.5,6.5,0,0,0-.52-2.74,4.21,4.21,0,0,0-2.44-1.85A24.36,24.36,0,0,0,256.3,57a22.75,22.75,0,0,0-3.49-.58V53.08h30v3.33a28.39,28.39,0,0,0-3.47.35,23.68,23.68,0,0,0-3.52.77,3.71,3.71,0,0,0-2.39,1.83,6.33,6.33,0,0,0-.61,2.81v48.17a5.38,5.38,0,0,0,.68,2.74,4.6,4.6,0,0,0,2.32,1.9,20.91,20.91,0,0,0,3.21.82,22.77,22.77,0,0,0,3.78.49Z" transform="translate(0 -38.05)"/><path class="cls-1" d="M337.53,89.09a15.53,15.53,0,0,1,3.12,5.14,19.11,19.11,0,0,1,1,6.49,18.51,18.51,0,0,1-6.52,14.54Q328.62,121,319,121a30,30,0,0,1-8.91-1.38,34.27,34.27,0,0,1-7.69-3.35l-2,3.42h-3.75l-.66-22.79h3.8a50,50,0,0,0,2.74,7.62,26.59,26.59,0,0,0,4.15,6.35,18.76,18.76,0,0,0,5.7,4.41,16.56,16.56,0,0,0,7.58,1.64,17.23,17.23,0,0,0,5.65-.84,9.5,9.5,0,0,0,6.14-6,14.69,14.69,0,0,0,.73-4.81,13.36,13.36,0,0,0-2.25-7.44,13.89,13.89,0,0,0-6.71-5.24q-3-1.22-7-2.68t-6.8-2.78a22,22,0,0,1-8.74-6.64q-3.12-4.09-3.12-10.71a16.42,16.42,0,0,1,1.54-7.08,18.67,18.67,0,0,1,4.41-5.86A20,20,0,0,1,310.19,53a22,22,0,0,1,7.74-1.39A22.66,22.66,0,0,1,326.16,53a39.36,39.36,0,0,1,6.63,3.28l1.93-3.18h3.75l.37,22.08H335c-.68-2.53-1.46-5-2.32-7.26a25.88,25.88,0,0,0-3.35-6.29,15.51,15.51,0,0,0-4.93-4.34,14.42,14.42,0,0,0-7.12-1.62,10.88,10.88,0,0,0-7.6,2.87,9,9,0,0,0-3.14,7,12.11,12.11,0,0,0,2,7.16,14.79,14.79,0,0,0,5.87,4.66,71.4,71.4,0,0,0,6.73,2.84q3.3,1.2,6.4,2.56A47.41,47.41,0,0,1,333,85.48,20.34,20.34,0,0,1,337.53,89.09Z" transform="translate(0 -38.05)"/><path class="cls-1" d="M384.08,119.62h-30v-3.33l3.66-.28a13.29,13.29,0,0,0,3.37-.56,4.69,4.69,0,0,0,2.25-1.66,5.26,5.26,0,0,0,.71-2.94V62.64a6.5,6.5,0,0,0-.52-2.74,4.21,4.21,0,0,0-2.44-1.85A24.36,24.36,0,0,0,357.6,57a22.75,22.75,0,0,0-3.49-.58V53.08h30v3.33a28.72,28.72,0,0,0-3.48.35,23.81,23.81,0,0,0-3.51.77,3.71,3.71,0,0,0-2.39,1.83,6.33,6.33,0,0,0-.61,2.81v48.17a5.38,5.38,0,0,0,.68,2.74,4.6,4.6,0,0,0,2.32,1.9,20.91,20.91,0,0,0,3.21.82,22.77,22.77,0,0,0,3.78.49Z" transform="translate(0 -38.05)"/><circle class="cls-2" cx="182.45" cy="49.1" r="46.35"/><circle class="cls-2" cx="219.23" cy="49.1" r="46.35"/><circle class="cls-2" cx="275.15" cy="46.98" r="46.35"/><circle class="cls-2" cx="311.94" cy="50.47" r="46.35"/><circle class="cls-2" cx="367.86" cy="49.1" r="46.35"/><line class="cls-2" x1="367.86" y1="95.45" x2="560" y2="93.33"/><line class="cls-2" x1="182.45" y1="2.74" y2="4.12"/><path d="M140.07,162.33a5.1,5.1,0,0,1-.26-1.85,18.64,18.64,0,0,1,.31-2.62,24.64,24.64,0,0,1,.86-3.28,25.2,25.2,0,0,1,3.61-7.18,1.08,1.08,0,0,1,.82-.53,2,2,0,0,1,.85.19,3.47,3.47,0,0,1,.73.45c.53.44.7.8.52,1.07-1.28,2.06-2.34,3.92-3.16,5.58a10.19,10.19,0,0,0,5.47-2,5.62,5.62,0,0,0,2.59-4.62,2.23,2.23,0,0,0-1.84-2.35,5.13,5.13,0,0,0-1.33-.15,9,9,0,0,0-1.6.15,11.61,11.61,0,0,0-1.59.43,11.74,11.74,0,0,0-2.78,1.48,1.13,1.13,0,0,1-.65.26,1.59,1.59,0,0,1-.66-.16,2.23,2.23,0,0,1-.63-.39c-.71-.6-.61-1.22.3-1.87a12.47,12.47,0,0,1,5.85-1.8c.49,0,1.13-.07,1.94-.07a8.31,8.31,0,0,1,2.47.39,5.56,5.56,0,0,1,2,1.07,4.46,4.46,0,0,1,1.41,3.5,6.28,6.28,0,0,1-1.6,4,11,11,0,0,1-3.77,3,3.56,3.56,0,0,1,1.66,1.37,3.4,3.4,0,0,1,.53,1.9,5,5,0,0,1-.41,1.87,5.45,5.45,0,0,1-1,1.55,7.14,7.14,0,0,1-1.48,1.22,9,9,0,0,1-1.77.86,10.75,10.75,0,0,1-3.85.71A3.39,3.39,0,0,1,140.07,162.33Zm3.31-6a13.62,13.62,0,0,0-1.09,4.5,1.85,1.85,0,0,0,.46,1.43,1.76,1.76,0,0,0,1.33.5,4.51,4.51,0,0,0,1.75-.37,6.33,6.33,0,0,0,1.65-1,4.38,4.38,0,0,0,1.78-3.28,2.17,2.17,0,0,0-1.5-2.27,3.57,3.57,0,0,0-1-.23,9.45,9.45,0,0,0-1.8.33C144.19,156.18,143.67,156.31,143.38,156.37Z" transform="translate(0 -38.05)"/><path d="M155,164a1.86,1.86,0,0,1-.43-.46,1,1,0,0,1-.18-.44,1.15,1.15,0,0,1,.07-.45c.06-.17.14-.39.24-.65q2.79-6.85,2.79-9.21a1.13,1.13,0,0,0-.45-.93l-.27-.19a.43.43,0,0,1-.13-.34.66.66,0,0,1,.17-.46,1.76,1.76,0,0,1,.46-.38,2.56,2.56,0,0,1,1.21-.31,2.76,2.76,0,0,1,1,.13,1.9,1.9,0,0,1,.6.37,1.49,1.49,0,0,1,.53,1,4.67,4.67,0,0,1-.13,1.11,10.57,10.57,0,0,1-.31,1.1c-.11.36-.23.7-.35,1a5.39,5.39,0,0,0-.23.71,2.1,2.1,0,0,0-.09.61,1.15,1.15,0,0,0,.4-.57l.53-1a11.54,11.54,0,0,1,3.48-4.24,2.32,2.32,0,0,1,1.18-.28,1.4,1.4,0,0,1,1.11.48,1.7,1.7,0,0,1,.45,1.08,3.9,3.9,0,0,1-.08,1,2.63,2.63,0,0,1-.31.73,1.28,1.28,0,0,1-1.1.77.51.51,0,0,1-.32-.12l-.3-.26a1.32,1.32,0,0,0-.87-.4,1.62,1.62,0,0,0-1,.55,9.54,9.54,0,0,0-1.24,1.41,26,26,0,0,0-3.53,6.39l-.6,1.59a4.68,4.68,0,0,1-.41.84.6.6,0,0,1-.53.25,1.87,1.87,0,0,1-.69-.13A2.22,2.22,0,0,1,155,164Z" transform="translate(0 -38.05)"/><path d="M171,161.8c.23,0,.35.16.35.47a2,2,0,0,1-.56,1.27,2.74,2.74,0,0,1-2.2,1,2.16,2.16,0,0,1-2.17-1.28,2.44,2.44,0,0,1-.22-1.09,5.19,5.19,0,0,1,.22-1.43c.15-.53.34-1.08.56-1.66s.47-1.16.73-1.75l.73-1.73a8.84,8.84,0,0,0,.79-2.54,1.61,1.61,0,0,0-.13-.81,1.07,1.07,0,0,0-.28-.31l-.27-.19a.4.4,0,0,1-.14-.34.69.69,0,0,1,.19-.46,1.72,1.72,0,0,1,.48-.38,3.12,3.12,0,0,1,1.44-.31q2,0,2,1a7.57,7.57,0,0,1-.65,2.81c-.42,1.05-.79,1.9-1.09,2.55l-.82,1.89a8.85,8.85,0,0,0-.9,3,.53.53,0,0,0,.6.6,2.07,2.07,0,0,0,.89-.15A1.12,1.12,0,0,1,171,161.8Zm2.8-14.8a2.32,2.32,0,0,1-.69.52,2.49,2.49,0,0,1-.8.25,1.46,1.46,0,0,1-.8-.13,1.89,1.89,0,0,1-.65-.51,2.11,2.11,0,0,1-.59-1.38,2,2,0,0,1,.23-1.05,1.87,1.87,0,0,1,.56-.56,2.26,2.26,0,0,1,1.24-.43,3.46,3.46,0,0,1,.9.09,1.63,1.63,0,0,1,.6.27,1.33,1.33,0,0,1,.67,1.1,2.64,2.64,0,0,1-.19,1.08A2.41,2.41,0,0,1,173.75,147Z" transform="translate(0 -38.05)"/><path d="M184.23,152.79q-.42,0-1.2.81c-.52.55-1,1-1.35,1.49l-1.16,1.39-2.25,2.86c-.53,1-.94,1.84-1.24,2.5l-.74,1.59a4,4,0,0,1-.5.83.75.75,0,0,1-.57.23,1.85,1.85,0,0,1-.7-.13,1.83,1.83,0,0,1-.58-.33,1.24,1.24,0,0,1-.52-1,2.44,2.44,0,0,1,.3-.8l.52-1.11c.16-.33.36-.75.57-1.26l.77-1.87a19.45,19.45,0,0,0,1.61-5.21,1.06,1.06,0,0,0-.41-.93l-.27-.19a.4.4,0,0,1-.14-.34.69.69,0,0,1,.19-.46,1.72,1.72,0,0,1,.48-.38,3,3,0,0,1,2.2-.18,1.8,1.8,0,0,1,.58.37,1.36,1.36,0,0,1,.5,1,4.19,4.19,0,0,1-.13,1,9.09,9.09,0,0,1-.32,1.06c-.14.36-.28.72-.42,1.06s-.28.65-.4.91l-.27.58c-.07.15-.09.19-.06.14,1-1.4,1.68-2.31,2-2.71l1-1.15a9.08,9.08,0,0,1,1.65-1.62,3.84,3.84,0,0,1,1.92-.82,3.35,3.35,0,0,1,1.17.18,2.38,2.38,0,0,1,.84.5,2.33,2.33,0,0,1,.75,1.78,5.94,5.94,0,0,1-.49,2.25c-.33.79-.62,1.42-.86,1.91s-.47,1-.69,1.48a9.56,9.56,0,0,0-1,3.33c0,.31.24.46.73.46a2.26,2.26,0,0,0,1-.24,1.8,1.8,0,0,1,.61-.25.26.26,0,0,1,.29.29,2.38,2.38,0,0,1-1.25,2,2.78,2.78,0,0,1-1.53.56,3.8,3.8,0,0,1-1.16-.15,2.36,2.36,0,0,1-.81-.47,2.59,2.59,0,0,1-.81-2,10.78,10.78,0,0,1,1-4c.49-1.09.83-1.83,1-2.23l.46-1a3.55,3.55,0,0,0,.43-1.38C185,153,184.74,152.79,184.23,152.79Z" transform="translate(0 -38.05)"/><path d="M198.1,161.38c-1.39,2.08-2.92,3.11-4.61,3.11a3.07,3.07,0,0,1-3.08-2.43,6.7,6.7,0,0,1-.27-2.05,9,9,0,0,1,.35-2.44,11.1,11.1,0,0,1,4.11-5.93,6.5,6.5,0,0,1,3.85-1.43,2.81,2.81,0,0,1,2.74,1.79q.17-.18.3-.36a2.52,2.52,0,0,1,.3-.35,1,1,0,0,1,.62-.36,1.62,1.62,0,0,1,.56.1,2.44,2.44,0,0,1,.57.26c.45.26.61.51.5.74a27.25,27.25,0,0,0-1.25,3.19l-2,6.46q-2.38,7.33-6.07,9.49a4.53,4.53,0,0,1-1.68.66,3.13,3.13,0,0,1-1,0,2.2,2.2,0,0,1-.56-.24c-.36-.22-.54-.43-.54-.61s.21-.52.64-.59a3.94,3.94,0,0,0,1.33-.51,7.72,7.72,0,0,0,1.33-1C195.91,167.32,197.21,164.8,198.1,161.38Zm-4.1-4.75a12.87,12.87,0,0,0-.56,2,8.84,8.84,0,0,0-.21,1.69,8.5,8.5,0,0,0,0,1,1.9,1.9,0,0,0,.17.6.86.86,0,0,0,.8.57,1.75,1.75,0,0,0,1-.37,6.49,6.49,0,0,0,1.1-1,14,14,0,0,0,1.15-1.54,21.53,21.53,0,0,0,1.09-1.92,18.47,18.47,0,0,0,1.61-4.33,1.54,1.54,0,0,0-.46-.78,2.18,2.18,0,0,0-1.41-.75,2.38,2.38,0,0,0-1.26.39,5,5,0,0,0-1.19,1.05,9.34,9.34,0,0,0-1.06,1.55A12.62,12.62,0,0,0,194,156.63Z" transform="translate(0 -38.05)"/><path d="M229.13,145.66a2.85,2.85,0,0,1-.93.44,5.84,5.84,0,0,1-1.41.14c-.59,0-1.35,0-2.29-.12-.22.59-.44,1.28-.67,2.08l-1.57,5.36c-1.95,6.41-4,10-6.21,10.8a1.69,1.69,0,0,1-.6.09,1.57,1.57,0,0,1-.58-.09,1.09,1.09,0,0,1-.38-.22.68.68,0,0,1-.3-.49q0-.26.12-.33l.36-.22q2-1.29,3.61-6.84l1-3.33a58.75,58.75,0,0,1,2.48-7.07c-.72-.06-1.27-.1-1.64-.1a4.43,4.43,0,0,0-2.33.46,2.83,2.83,0,0,0-1,1,2.52,2.52,0,0,0-.29.73c0,.26-.11.42-.25.49a1.06,1.06,0,0,1-.5.1,1.09,1.09,0,0,1-.6-.21,1.68,1.68,0,0,1-.52-.54,2.15,2.15,0,0,1-.34-1.51,2.85,2.85,0,0,1,.55-1.45,3.67,3.67,0,0,1,1.09-1,4.64,4.64,0,0,1,2.45-.71,21.2,21.2,0,0,1,2.45.13c.77.08,1.54.18,2.3.29a37.87,37.87,0,0,0,3.88.41,6.2,6.2,0,0,0,1.24-.09,2.17,2.17,0,0,0,.69-.29c.19-.13.33-.21.4-.25a.88.88,0,0,1,.38-.07q.41,0,.36.63a2.75,2.75,0,0,1-.3,1.06A2.33,2.33,0,0,1,229.13,145.66Z" transform="translate(0 -38.05)"/><path d="M236.52,152.79c-.51,0-1.4.77-2.7,2.3l-1.13,1.39-2.19,2.86c-.53,1-.94,1.84-1.24,2.5l-.74,1.59a4,4,0,0,1-.5.83.75.75,0,0,1-.58.23,1.8,1.8,0,0,1-.69-.13,1.72,1.72,0,0,1-.58-.33,1.24,1.24,0,0,1-.52-1,2.47,2.47,0,0,1,.28-.8l.55-1.11a72.76,72.76,0,0,0,4.64-13.35,51.18,51.18,0,0,0,1.1-5.35c.1-.77.48-1.15,1.12-1.15a1.71,1.71,0,0,1,1,.3,1.53,1.53,0,0,1,.77,1.26,10.24,10.24,0,0,1-.19,1.5c-.11.56-.25,1.16-.43,1.81s-.37,1.34-.58,2.06c-.61,1.83-1,3.15-1.34,4-.9,2.46-1.45,3.89-1.66,4.31.14-.16.32-.39.53-.67q2.49-3.27,3.08-3.9a11,11,0,0,1,1-1,3.2,3.2,0,0,1,2.19-.75,2.23,2.23,0,0,1,1.73.72,2.27,2.27,0,0,1,.62,1.53,5.33,5.33,0,0,1-.19,1.49,10.72,10.72,0,0,1-.47,1.34q-.28.69-.63,1.41l-.68,1.44a9.13,9.13,0,0,0-1,3.22c0,.5.2.74.6.74a2.28,2.28,0,0,0,1-.24,1.8,1.8,0,0,1,.61-.25c.19,0,.28.1.28.29a2.38,2.38,0,0,1-1.23,2,2.8,2.8,0,0,1-1.54.56,3.83,3.83,0,0,1-1.16-.14,2.08,2.08,0,0,1-.81-.47,2.79,2.79,0,0,1-.81-2.17,10.23,10.23,0,0,1,1-3.89l1.47-3.14a3.55,3.55,0,0,0,.43-1.38C237.08,153,236.89,152.79,236.52,152.79Z" transform="translate(0 -38.05)"/><path d="M242.33,159.57a8.5,8.5,0,0,1,.39-2.27,11.24,11.24,0,0,1,.92-2.11,12,12,0,0,1,1.35-1.93,10.87,10.87,0,0,1,1.67-1.59,6.51,6.51,0,0,1,4-1.46,3,3,0,0,1,3.12,1.93,3.85,3.85,0,0,1,.26,1.55,4.27,4.27,0,0,1-.34,1.65,4.86,4.86,0,0,1-.91,1.38,6.69,6.69,0,0,1-1.38,1.12,10.45,10.45,0,0,1-1.75.83,12.82,12.82,0,0,1-4.15.71,2.45,2.45,0,0,0-.07.58,3.79,3.79,0,0,0,.08.85,2.38,2.38,0,0,0,.33.84,1.56,1.56,0,0,0,1.42.82,5.79,5.79,0,0,0,3.09-.93,3.94,3.94,0,0,0,.87-.65.92.92,0,0,1,.58-.33.51.51,0,0,1,.43.29,1.27,1.27,0,0,1,.19.66,2,2,0,0,1-.42,1.26,6.92,6.92,0,0,1-5.12,1.72,4.4,4.4,0,0,1-3.23-1.2A4.76,4.76,0,0,1,242.33,159.57Zm8-7.54c-1,0-1.88.65-2.76,2a14.88,14.88,0,0,0-1.81,4,6.59,6.59,0,0,0,4-1.8,4.11,4.11,0,0,0,1.54-2.83C251.25,152.48,250.94,152,250.31,152Z" transform="translate(0 -38.05)"/><path d="M277.65,147.81c0-1.81-1.19-2.72-3.59-2.72a8.94,8.94,0,0,0-4.57,1.37,7.81,7.81,0,0,0-1,.73,1.09,1.09,0,0,1-.72.34,1.41,1.41,0,0,1-.66-.17,2.61,2.61,0,0,1-.56-.43,1.19,1.19,0,0,1,.19-1.93q1.65-1.41,5.44-1.82c.51-.05,1.16-.08,1.95-.08a8.11,8.11,0,0,1,2.48.42,6.68,6.68,0,0,1,2.19,1.15,4.62,4.62,0,0,1,1.78,3.73,6.53,6.53,0,0,1-2.46,4.91,12.61,12.61,0,0,1-5.05,2.78,6.47,6.47,0,0,1,1.49,1.88l1.1,2c.95,1.78,1.81,2.74,2.57,2.9a2.28,2.28,0,0,0,.82,0,3.38,3.38,0,0,1,.55-.09c.09,0,.15.08.18.23a.86.86,0,0,1-.12.54,1.78,1.78,0,0,1-.53.62,2.66,2.66,0,0,1-1.89.61,4.15,4.15,0,0,1-1.66-.43,4.36,4.36,0,0,1-1.13-.88,6.26,6.26,0,0,1-.89-1.19c-.26-.44-.5-.88-.72-1.34l-.61-1.34c-.2-.44-.37-.81-.54-1.13s-.3-.6-.42-.86a4.27,4.27,0,0,0-.4-.7,2,2,0,0,0-1.19-.9q-2.86,7.38-5.84,8.42a1.41,1.41,0,0,1-.49.09,1.11,1.11,0,0,1-.46-.09.91.91,0,0,1-.34-.22.75.75,0,0,1-.29-.58.54.54,0,0,1,.2-.46q2.06-1.48,4.56-8.7l.82-2.31q1.41-4,2.38-4.92a1.15,1.15,0,0,1,.71-.26,1.59,1.59,0,0,1,.64.12,1.92,1.92,0,0,1,.48.29,1.14,1.14,0,0,1,.46.84,1.61,1.61,0,0,1-.18.76,9.07,9.07,0,0,0-.42.93c-.45,1.17-.79,2.1-1,2.8l-.7,2a9.72,9.72,0,0,0,5.16-2.28A5.82,5.82,0,0,0,277.65,147.81Z" transform="translate(0 -38.05)"/><path d="M281.58,159.57a8.92,8.92,0,0,1,.39-2.27,11.24,11.24,0,0,1,.92-2.11,12,12,0,0,1,1.35-1.93,10.87,10.87,0,0,1,1.67-1.59,6.51,6.51,0,0,1,3.95-1.46,3,3,0,0,1,3.12,1.93,3.85,3.85,0,0,1,.26,1.55,4.27,4.27,0,0,1-.34,1.65,4.66,4.66,0,0,1-.91,1.38,6.69,6.69,0,0,1-1.38,1.12,10.35,10.35,0,0,1-1.74.83,12.88,12.88,0,0,1-4.16.71,2.45,2.45,0,0,0-.07.58,3.79,3.79,0,0,0,.08.85,2.83,2.83,0,0,0,.33.84,1.56,1.56,0,0,0,1.42.82,5.79,5.79,0,0,0,3.09-.93,3.94,3.94,0,0,0,.87-.65.92.92,0,0,1,.58-.33.49.49,0,0,1,.43.29,1.18,1.18,0,0,1,.19.66,2,2,0,0,1-.41,1.26,7,7,0,0,1-5.13,1.72,4.4,4.4,0,0,1-3.23-1.2A4.76,4.76,0,0,1,281.58,159.57Zm8-7.54c-.95,0-1.88.65-2.76,2a14.57,14.57,0,0,0-1.8,4,6.59,6.59,0,0,0,4-1.8,4.13,4.13,0,0,0,1.55-2.83C290.51,152.48,290.19,152,289.56,152Z" transform="translate(0 -38.05)"/><path d="M305.2,160.72c0,.84.3,1.26.89,1.26a2.35,2.35,0,0,0,1-.19,1.62,1.62,0,0,1,.54-.19.26.26,0,0,1,.29.3,2.44,2.44,0,0,1-1.23,2,2.9,2.9,0,0,1-2.66.44,2.21,2.21,0,0,1-1.31-1.36,2.8,2.8,0,0,1-.2-1,9,9,0,0,1,.13-1.5,7.56,7.56,0,0,1-3.15,3.58,3.46,3.46,0,0,1-1.6.38,3,3,0,0,1-1.47-.34,3.27,3.27,0,0,1-1.06-1,5.1,5.1,0,0,1-.81-3.22,10,10,0,0,1,1.44-4.78,11,11,0,0,1,3.14-3.56,6.09,6.09,0,0,1,3.55-1.41,3.07,3.07,0,0,1,2.67,1.51c.63-1,1.19-1.51,1.67-1.51a2,2,0,0,1,1.17.28c.51.37.68.69.54,1q-3.43,7-3.53,8.75A4.41,4.41,0,0,0,305.2,160.72Zm-7.58.06c0,1.09.35,1.64,1.05,1.64.54,0,1.2-.46,2-1.37a19,19,0,0,0,3.05-5.41,20.61,20.61,0,0,0,.71-2.14,1.6,1.6,0,0,0-.78-1.36,1.32,1.32,0,0,0-.73-.16,2.48,2.48,0,0,0-1.14.36,5.49,5.49,0,0,0-1.25,1,8.21,8.21,0,0,0-1.14,1.46,11.48,11.48,0,0,0-.92,1.82A11.25,11.25,0,0,0,297.62,160.78Z" transform="translate(0 -38.05)"/><path d="M310.48,163.81a2.63,2.63,0,0,1-.55-.91,3.61,3.61,0,0,1-.22-1.28,8.17,8.17,0,0,1,.34-2c.22-.82.51-1.75.85-2.8l1.15-3.4a52.58,52.58,0,0,0,2.83-11c.08-.77.46-1.15,1.12-1.15a1.71,1.71,0,0,1,1,.3,1.61,1.61,0,0,1,.77,1.34,11.25,11.25,0,0,1-.26,1.8q-.24,1-.6,2.31c-.25.83-.53,1.71-.85,2.64l-1.89,5.55a26.07,26.07,0,0,0-1.62,6.11c0,.5.2.74.6.74a2.24,2.24,0,0,0,1-.24,1.88,1.88,0,0,1,.61-.25.26.26,0,0,1,.29.29,2.38,2.38,0,0,1-1.25,2,2.72,2.72,0,0,1-1.52.56,3.1,3.1,0,0,1-1.11-.16A2.06,2.06,0,0,1,310.48,163.81Z" transform="translate(0 -38.05)"/><path d="M328.12,163.06a5.32,5.32,0,0,1-.45-1.25,6.33,6.33,0,0,1-.15-1.4,9.76,9.76,0,0,1,.25-1.93,25,25,0,0,1,.69-2.54c.29-.89.63-1.8,1-2.72s.8-1.84,1.23-2.73a45,45,0,0,1,2.67-4.78h-.15a6.39,6.39,0,0,0-3,.74,1.13,1.13,0,0,1-.66.26,1.79,1.79,0,0,1-1.27-.65q-1.42-1.5,1.7-2.48a8,8,0,0,1,2.35-.48,3.17,3.17,0,0,1,1.45.28,3.79,3.79,0,0,1,.93.66,3.94,3.94,0,0,1,.85,1.19,2.65,2.65,0,0,1,.25,1,3.61,3.61,0,0,1-.26,1.19c-.18.5-.41,1-.68,1.6l-.93,1.8c-.33.63-.65,1.29-1,2l-1,2.08c-.33.69-.62,1.37-.87,2a10.89,10.89,0,0,0-.84,3.74,5.43,5.43,0,0,0,.18,1.53,16.77,16.77,0,0,1,1.48-2l1.91-2.14q3.33-3.59,4.32-4.76a27.43,27.43,0,0,0,3.58-5.18,3.88,3.88,0,0,0,.51-1.77,2.83,2.83,0,0,0-.81-2.2.55.55,0,0,1-.07-.7,2.08,2.08,0,0,1,.43-.61,1.73,1.73,0,0,1,1.2-.48,2.24,2.24,0,0,1,1.14.27,2.4,2.4,0,0,1,.75.7,3.54,3.54,0,0,1,.59,2.07,7.37,7.37,0,0,1-.53,2.62,14.35,14.35,0,0,1-1.38,2.7,23,23,0,0,1-1.94,2.56c-.73.82-1.47,1.61-2.22,2.36l-4.13,3.89c-1.25,1.26-2.09,2.12-2.5,2.59-.81.89-1.32,1.48-1.55,1.76a1.52,1.52,0,0,1-.61.51,2.92,2.92,0,0,1-.74.08,1.5,1.5,0,0,1-.95-.41A3.4,3.4,0,0,1,328.12,163.06Z" transform="translate(0 -38.05)"/><path d="M353.23,160.72c0,.84.3,1.26.89,1.26a2.35,2.35,0,0,0,1-.19,1.62,1.62,0,0,1,.54-.19.26.26,0,0,1,.29.3,2.44,2.44,0,0,1-1.23,2,2.9,2.9,0,0,1-2.66.44,2.21,2.21,0,0,1-1.31-1.36,2.59,2.59,0,0,1-.2-1,9,9,0,0,1,.13-1.5,7.53,7.53,0,0,1-3.16,3.58,3.39,3.39,0,0,1-1.59.38,3,3,0,0,1-1.47-.34,3.27,3.27,0,0,1-1.06-1,5,5,0,0,1-.81-3.22,10.09,10.09,0,0,1,1.43-4.78,11.19,11.19,0,0,1,3.15-3.56,6.09,6.09,0,0,1,3.55-1.41,3.07,3.07,0,0,1,2.67,1.51c.63-1,1.18-1.51,1.67-1.51a2,2,0,0,1,1.17.28q.75.56.54,1-3.44,7-3.53,8.75A4.41,4.41,0,0,0,353.23,160.72Zm-7.59.06c0,1.09.36,1.64,1.06,1.64.53,0,1.2-.46,2-1.37a19,19,0,0,0,3.05-5.41,20.61,20.61,0,0,0,.71-2.14,1.6,1.6,0,0,0-.78-1.36,1.32,1.32,0,0,0-.73-.16,2.44,2.44,0,0,0-1.14.36,5.49,5.49,0,0,0-1.25,1,8.21,8.21,0,0,0-1.14,1.46,11.48,11.48,0,0,0-.92,1.82A11.26,11.26,0,0,0,345.64,160.78Z" transform="translate(0 -38.05)"/><path d="M358.51,163.81a2.63,2.63,0,0,1-.55-.91,3.4,3.4,0,0,1-.22-1.28,8.17,8.17,0,0,1,.34-2c.22-.82.51-1.75.85-2.8l1.15-3.4a52.58,52.58,0,0,0,2.83-11c.08-.77.46-1.15,1.12-1.15a1.71,1.71,0,0,1,1,.3,1.61,1.61,0,0,1,.77,1.34,11.25,11.25,0,0,1-.26,1.8q-.24,1-.6,2.31c-.25.83-.53,1.71-.85,2.64l-1.89,5.55a26.07,26.07,0,0,0-1.62,6.11c0,.5.2.74.6.74a2.24,2.24,0,0,0,1-.24,1.88,1.88,0,0,1,.61-.25.26.26,0,0,1,.29.29,2.38,2.38,0,0,1-1.25,2,2.72,2.72,0,0,1-1.52.56,3.1,3.1,0,0,1-1.11-.16A2.06,2.06,0,0,1,358.51,163.81Z" transform="translate(0 -38.05)"/><path d="M378.42,161.66a.28.28,0,0,1,.31.32,2.34,2.34,0,0,1-1.18,2,3.24,3.24,0,0,1-1.85.52,1.92,1.92,0,0,1-1.34-.41,2.3,2.3,0,0,1-.84-1.8,12.46,12.46,0,0,1,1.14-4.14c-1.41,1.89-2.39,3.15-3,3.78a13.92,13.92,0,0,1-1.47,1.45,4.1,4.1,0,0,1-2.48,1.12A2.17,2.17,0,0,1,365.5,163a3,3,0,0,1-.17-1,5,5,0,0,1,.2-1.3,13.31,13.31,0,0,1,.51-1.5c.21-.52.44-1,.69-1.6l.73-1.64c1-2.1,1.3-3.35,1.06-3.74a1.68,1.68,0,0,0-.62-.52.37.37,0,0,1-.16-.34.66.66,0,0,1,.2-.46,1.88,1.88,0,0,1,.51-.38,3.12,3.12,0,0,1,1.34-.31,2.92,2.92,0,0,1,1,.14,2,2,0,0,1,.57.36,1.4,1.4,0,0,1,.45,1,4.74,4.74,0,0,1-.18,1.22,13.7,13.7,0,0,1-.47,1.47q-.29.79-.63,1.65c-.62,1.47-1.05,2.45-1.27,2.92l-.5,1.05a3.89,3.89,0,0,0-.43,1.33.84.84,0,0,0,.13.54.54.54,0,0,0,.44.16,1.4,1.4,0,0,0,.75-.3,7.62,7.62,0,0,0,.93-.81q.5-.51,1-1.17c.36-.44.72-.9,1.06-1.37a22.53,22.53,0,0,0,1.51-2.25c1.93-3.41,3-5.2,3.09-5.35a1.16,1.16,0,0,1,.89-.59,2.69,2.69,0,0,1,.8.1,1.91,1.91,0,0,1,.59.29c.38.29.51.57.37.85q-3.33,7-3.59,8.75a7.87,7.87,0,0,0-.07.85c0,.69.21,1,.63,1a2,2,0,0,0,1-.21A1.26,1.26,0,0,1,378.42,161.66Z" transform="translate(0 -38.05)"/><path d="M381.29,159.57a8.92,8.92,0,0,1,.39-2.27,11.24,11.24,0,0,1,.92-2.11,12,12,0,0,1,1.35-1.93,10.87,10.87,0,0,1,1.67-1.59,6.51,6.51,0,0,1,3.95-1.46,3,3,0,0,1,3.12,1.93,3.85,3.85,0,0,1,.26,1.55,4.27,4.27,0,0,1-.34,1.65,4.86,4.86,0,0,1-.91,1.38,6.69,6.69,0,0,1-1.38,1.12,10.45,10.45,0,0,1-1.75.83,12.82,12.82,0,0,1-4.15.71,2.45,2.45,0,0,0-.07.58,3.79,3.79,0,0,0,.08.85,2.59,2.59,0,0,0,.33.84,1.56,1.56,0,0,0,1.42.82,5.79,5.79,0,0,0,3.09-.93,3.94,3.94,0,0,0,.87-.65.92.92,0,0,1,.58-.33.51.51,0,0,1,.43.29,1.27,1.27,0,0,1,.19.66,2,2,0,0,1-.41,1.26,7,7,0,0,1-5.13,1.72,4.4,4.4,0,0,1-3.23-1.2A4.76,4.76,0,0,1,381.29,159.57Zm8-7.54c-1,0-1.88.65-2.76,2a14.57,14.57,0,0,0-1.8,4,6.59,6.59,0,0,0,4-1.8,4.11,4.11,0,0,0,1.54-2.83C390.21,152.48,389.9,152,389.27,152Z" transform="translate(0 -38.05)"/><path d="M393.7,162a1.61,1.61,0,0,1,.19-.78,1.9,1.9,0,0,1,.45-.61,1.77,1.77,0,0,1,1.21-.54.49.49,0,0,1,.54.56,2.13,2.13,0,0,0,1,2,1.39,1.39,0,0,0,.71.2,2.35,2.35,0,0,0,.63-.08,1.41,1.41,0,0,0,.48-.26,1.2,1.2,0,0,0,.49-.94,2,2,0,0,0-.25-1,8.38,8.38,0,0,0-.61-1l-.78-1.1a6.84,6.84,0,0,1-1.64-4,3.73,3.73,0,0,1,1.3-2.77,5.24,5.24,0,0,1,3.78-1.41,4.61,4.61,0,0,1,3.16,1,2.38,2.38,0,0,1,.93,1.84,2.05,2.05,0,0,1-.82,1.72,1.76,1.76,0,0,1-1.48.43.77.77,0,0,1-.5-.34.68.68,0,0,1-.07-.61,2.35,2.35,0,0,0,.11-.71,1.72,1.72,0,0,0-.14-.68,1.64,1.64,0,0,0-1.37-1,2.71,2.71,0,0,0-.87.11,1.77,1.77,0,0,0-.6.34,1.56,1.56,0,0,0-.54,1.21,2.9,2.9,0,0,0,.25,1.23,7.42,7.42,0,0,0,.61,1c.24.35.5.7.78,1.06a8.63,8.63,0,0,1,.78,1.12,4.73,4.73,0,0,1,.87,2.42,3.27,3.27,0,0,1-.44,1.75,4.1,4.1,0,0,1-1.14,1.21,5.43,5.43,0,0,1-3.33,1.11,4.21,4.21,0,0,1-2.79-.85A2.11,2.11,0,0,1,393.7,162Z" transform="translate(0 -38.05)"/></svg>